<svg width="371" height="149" viewBox="0 0 371 149" fill="none" xmlns="http://www.w3.org/2000/svg">
<path d="M16.32 73.23C12.86 73.23 10.05 76.04 10.05 79.5V110.32C10.05 112.85 9.53 114.74 8.5 115.97C7.47 117.21 5.75 117.82 3.33 117.82C1.77 117.82 0.5 119.09 0.5 120.65V125.68C0.5 127.24 1.77 128.51 3.33 128.51H5.45C11.22 128.51 15.52 127.07 18.34 124.18C21.17 121.29 22.58 116.82 22.58 110.75V79.48C22.58 76.02 19.77 73.21 16.31 73.21L16.32 73.23Z" fill="url(#paint0_linear_2760_15052)" stroke="#019AFD" stroke-width="1.01" stroke-miterlimit="10"/>
<path d="M186.07 82.11C185.01 79.55 183.58 77.5 181.78 75.97C179.98 74.44 177.9 73.35 175.54 72.7C173.18 72.05 170.7 71.73 168.1 71.73C165.5 71.73 163.13 72.03 160.8 72.61C158.47 73.2 156.4 74.2 154.6 75.61C152.8 77.02 151.35 78.91 150.26 81.26C149.17 83.62 148.62 86.53 148.62 90V91.77C148.5 94.83 147.88 96.92 146.77 98.04C145.65 99.16 144.44 99.72 143.15 99.72H127.16C125.1 99.72 123.49 99.29 122.35 98.44C121.2 97.59 120.57 96.42 120.45 94.95V79.49C120.45 76.03 117.64 73.22 114.18 73.22C110.72 73.22 107.91 76.03 107.91 79.49V93.36C107.91 94.54 107.88 95.52 107.82 96.32C107.76 97.11 107.58 97.76 107.29 98.26C106.99 98.76 106.55 99.13 105.97 99.36C105.38 99.6 104.53 99.71 103.41 99.71C101.88 99.71 100.51 99.4 99.3 98.78C98.09 98.16 97.49 96.85 97.49 94.85V85.84C97.49 82.38 94.68 79.57 91.22 79.57C87.76 79.57 84.95 82.38 84.95 85.84V93.44C84.95 94.62 84.91 95.6 84.82 96.4C84.73 97.2 84.54 97.83 84.25 98.3C83.95 98.77 83.47 99.13 82.79 99.36C82.11 99.6 81.21 99.71 80.1 99.71C78.69 99.71 77.39 99.39 76.21 98.74C75.03 98.09 74.44 96.83 74.44 94.94V85.84C74.44 82.38 71.63 79.57 68.17 79.57C64.71 79.57 61.9 82.38 61.9 85.84V93.7C61.9 96 61.66 97.57 61.19 98.43C60.72 99.28 59.63 99.71 57.92 99.71H52C52 99.71 51.97 99.71 51.96 99.71C51.94 99.71 51.93 99.71 51.92 99.71H49.54C48.07 99.71 46.99 99.37 46.32 98.69C45.64 98.01 45.3 96.79 45.3 95.02V40C45.3 36.59 42.53 33.82 39.12 33.82C35.71 33.82 32.94 36.59 32.94 40V99.26C32.94 103.09 33.73 105.9 35.31 107.69C36.89 109.49 39.52 110.38 43.2 110.38H51.93C51.93 110.38 51.96 110.38 51.98 110.38C51.99 110.38 52.01 110.38 52.02 110.38H62.62C65.62 110.38 67.95 110.07 69.6 109.45C71.25 108.83 72.48 107.58 73.31 105.7C74.07 107.11 75.19 108.25 76.67 109.1C78.14 109.95 80.03 110.38 82.32 110.38H85.76C88.64 110.38 90.93 110.06 92.61 109.41C94.29 108.76 95.54 107.53 96.36 105.7C97.12 107.11 98.23 108.25 99.67 109.1C101.11 109.95 102.98 110.38 105.28 110.38H110.14C112.2 110.38 114.03 110.07 115.62 109.45C117.21 108.83 118.42 107.67 119.24 105.96C120.36 107.85 121.74 109.05 123.39 109.58C125.04 110.11 126.98 110.38 129.22 110.38H140.61C141.43 110.38 142.38 110.35 143.44 110.29C144.5 110.23 145.59 110.04 146.71 109.72C147.83 109.4 148.93 108.93 150.02 108.31C151.11 107.69 152.07 106.79 152.9 105.62C154.67 107.62 156.87 109.02 159.49 109.81C162.12 110.61 164.99 111 168.12 111C170.89 111 173.48 110.68 175.87 110.03C178.26 109.38 180.33 108.31 182.07 106.81C183.81 105.31 185.18 103.32 186.19 100.85C187.19 98.38 187.7 95.34 187.7 91.75C187.7 87.86 187.17 84.64 186.11 82.08L186.07 82.11ZM173.53 98.36C172.35 99.68 170.53 100.35 168.05 100.35C165.57 100.35 163.81 99.69 162.57 98.36C161.33 97.04 160.72 94.69 160.72 91.34C160.72 85.39 163.16 82.42 168.05 82.42C172.94 82.42 175.29 85.39 175.29 91.34C175.29 94.7 174.7 97.04 173.52 98.36H173.53Z" fill="url(#paint1_linear_2760_15052)" stroke="#019AFD" stroke-width="1.01" stroke-miterlimit="10"/>
<path d="M186.13 44.95L186.11 58C186.11 63.35 181.76 67.68 176.41 67.68L91.3 67.57L70.19 67.55H64.54C63.58 67.55 62.68 67.94 62.06 68.66L57.53 73.82C55.51 76.1 51.74 74.68 51.74 71.63L51.77 48.04V43.75C51.77 38.97 55.66 35.1 60.44 35.1H63.67H68.32H73.01H80.22H81.69L93.15 35.12H96.55L103.11 35.14H114.53L176.45 35.23C179.57 35.23 182.36 36.72 184.12 39.02C185.38 40.65 186.13 42.7 186.13 44.93V44.95Z" fill="url(#paint2_linear_2760_15052)" stroke="url(#paint3_linear_2760_15052)" stroke-width="1.01" stroke-miterlimit="10"/>
<path opacity="0.1" d="M184.12 39.04C171.89 48.4 151.47 56.5 127.62 60.38C92.04 66.17 60.7 60.67 51.76 48.04V43.75C51.76 38.97 55.65 35.1 60.43 35.1H63.66H68.31H73H80.21H81.68L93.14 35.12H96.54L103.1 35.14H114.52L176.44 35.23C179.56 35.23 182.35 36.72 184.11 39.02L184.12 39.04Z" fill="#FAF8FF"/>
<path d="M56.6 45.25C53.78 45.25 51.45 42.71 51.4 39.59L51.25 29.55L51.4 19.42C51.45 16.3 53.78 13.76 56.6 13.76C57.47 13.76 58.34 14.01 59.11 14.49L67.03 19.36L74.86 24.57C76.44 25.62 77.38 27.47 77.38 29.51C77.38 31.55 76.44 33.4 74.86 34.45L67.1 39.62L59.12 44.53C58.35 45.01 57.48 45.26 56.61 45.26L56.6 45.25Z" fill="white"/>
<path d="M73.67 26.76C75.54 28 75.54 31 73.67 32.24L65.91 37.41L57.99 42.28C56.09 43.45 53.74 41.95 53.71 39.54L53.55 29.5L53.71 19.46C53.75 17.05 56.09 15.55 57.99 16.72L65.91 21.59L73.67 26.76Z" fill="#FFCD00"/>
<path d="M56.87 45.25C54.05 45.25 51.72 42.71 51.67 39.59L51.52 29.55L51.67 19.42C51.72 16.3 54.05 13.76 56.87 13.76C57.74 13.76 58.61 14.01 59.38 14.49L67.3 19.36L75.13 24.57C76.71 25.62 77.65 27.47 77.65 29.51C77.65 31.55 76.71 33.4 75.13 34.45L67.37 39.62L59.39 44.53C58.62 45.01 57.75 45.26 56.88 45.26L56.87 45.25Z" fill="white"/>
<path d="M73.94 32.24L66.18 37.41L58.27 42.28C56.36 43.45 54.02 41.95 53.99 39.54L53.84 29.51L53.99 19.47C53.99 18.57 54.34 17.8 54.85 17.24C55.7 16.31 57.08 15.99 58.27 16.72L66.18 21.6L73.94 26.77C74.4 27.08 74.75 27.49 74.98 27.96C75.69 29.39 75.35 31.31 73.94 32.25V32.24Z" fill="url(#paint4_linear_2760_15052)"/>
<path d="M74.98 27.95C74.98 27.95 74.89 28.03 74.84 28.06L67.08 33.23L59.16 38.11C57.26 39.27 54.91 37.78 54.88 35.37L54.73 25.33L54.85 17.24C55.7 16.31 57.08 15.99 58.27 16.72L66.18 21.6L73.94 26.77C74.4 27.08 74.75 27.49 74.98 27.96V27.95Z" fill="url(#paint5_linear_2760_15052)"/>
<path d="M361.42 74.2V74.29C361.25 90.98 345.37 106.18 334.32 117.88C333.03 119.13 331.71 120.41 330.38 121.7C329.43 122.63 328.47 123.57 327.5 124.51C316.15 135.52 303.75 146.71 289.54 148.39C271.45 149.89 255.28 132.56 242.59 120.58C239.8 117.82 237.2 115.19 234.81 112.66C223.85 101.09 217.01 91.72 214.29 82.88C211.61 74.18 212.92 66.01 218.21 56.8C222.74 48.91 230.21 40.26 240.61 29.86C241.26 29.21 241.92 28.55 242.6 27.88C254.27 16.86 268.86 1.34 285.19 0.06C286.63 -0.05 288.08 -0.05 289.55 0.06C306.69 2.08 321.14 17.89 334.33 30.57C337.1 33.5 340.17 36.66 343.22 39.99C352.35 49.97 361.3 61.65 361.43 74.16L361.42 74.2Z" fill="url(#paint6_linear_2760_15052)"/>
<path opacity="0.12" d="M361.42 74.2V74.29C361.25 90.98 345.37 106.18 334.32 117.88C333.03 119.13 331.71 120.41 330.38 121.7C312.53 122.78 296.58 105.7 284.04 93.86C281.25 91.1 278.65 88.47 276.26 85.94C265.3 74.37 258.46 65 255.74 56.16C253.06 47.46 254.37 39.29 259.66 30.08C264.19 22.19 271.66 13.54 282.06 3.14C282.71 2.49 283.37 1.83 284.05 1.16C284.43 0.8 284.81 0.44 285.2 0.0700002C286.64 -0.0399998 288.09 -0.0399998 289.56 0.0700002C306.7 2.09 321.15 17.9 334.34 30.58C337.11 33.51 340.18 36.67 343.23 40C352.36 49.98 361.31 61.66 361.44 74.17L361.42 74.2Z" fill="url(#paint7_linear_2760_15052)"/>
<path opacity="0.12" d="M343.21 40.03C339.97 38.21 336.5 36.65 332.82 35.38C323 31.99 312.68 30.27 302.13 30.27C294.84 30.27 287.5 31.1 280.31 32.75C268.15 35.52 256.52 40.59 246.21 47.51C245.4 44.59 244.84 41.64 244.56 38.67C244.24 35.25 242.8 32.21 240.61 29.89C237.93 27.04 234.12 25.29 229.91 25.29C229.44 25.29 228.97 25.32 228.52 25.36C224.6 25.73 221.05 27.6 218.54 30.63C216.02 33.66 214.84 37.49 215.21 41.41C215.7 46.63 216.71 51.79 218.21 56.83C219.46 61.04 221.06 65.17 222.99 69.2C219.67 73.54 216.76 78.13 214.29 82.91C217.01 91.75 223.85 101.12 234.81 112.69C235.99 106.41 238.19 100.4 241.34 94.77C242.04 95.46 242.74 96.14 243.46 96.81C243.47 96.81 243.48 96.83 243.49 96.84L245.51 98.72L245.55 98.7C258.29 109.94 274.22 118.31 290.74 122.41C290.79 122.42 290.83 122.43 290.87 122.44C298.82 124.4 306.9 125.4 314.9 125.4C319.17 125.4 323.4 125.11 327.51 124.55C329.82 122.3 332.1 120.07 334.32 117.92C345.37 106.21 361.25 91.02 361.42 74.33V74.24C361.29 61.73 352.34 50.05 343.21 40.07V40.03ZM325.88 94.93C322.36 95.57 318.66 95.9 314.89 95.9C309.25 95.9 303.51 95.19 297.83 93.77H297.81C286.1 90.85 275.1 85.19 265.98 77.41C264.31 75.97 262.72 74.49 261.23 72.95C268.88 67.55 277.64 63.59 286.84 61.5C286.84 61.5 286.843 61.5 286.85 61.5C291.9 60.35 297.04 59.76 302.13 59.76C309.4 59.76 316.49 60.93 323.2 63.26C330.96 65.94 340.17 72.46 340.57 82C340.57 82.15 340.57 82.29 340.57 82.44C340.57 92 327.4 94.67 325.87 94.94L325.88 94.93Z" fill="url(#paint8_linear_2760_15052)"/>
<path d="M245.22 86.33C240.7 86.33 236.49 84.3 233.67 80.76C223.08 67.44 216.69 51.94 215.2 35.92C214.83 32 216.02 28.17 218.53 25.14C221.04 22.11 224.59 20.24 228.51 19.87C228.97 19.83 229.44 19.8 229.91 19.8C237.55 19.8 243.85 25.55 244.56 33.18C245.52 43.47 249.74 53.58 256.76 62.41C261.82 68.77 260.76 78.07 254.39 83.13C251.79 85.2 248.54 86.33 245.22 86.33Z" fill="white"/>
<path d="M294.29 117.35C293.1 117.35 291.91 117.2 290.74 116.92C273.31 112.6 256.52 103.51 243.46 91.32C239.93 88.03 236.64 84.48 233.68 80.76C229.51 75.52 229.4 68.12 233.4 62.77C234.1 61.81 235 60.88 236.03 60.05C238.64 57.98 241.9 56.84 245.21 56.84C247.02 56.84 248.79 57.17 250.47 57.81C252.94 58.76 255.11 60.35 256.75 62.42C259.42 65.78 262.52 68.98 265.97 71.93C275.09 79.73 286.11 85.39 297.83 88.3C305.71 90.25 310.54 98.27 308.59 106.16C306.95 112.75 301.08 117.36 294.29 117.36V117.35Z" fill="white"/>
<path d="M243.46 91.32C239.92 88.03 236.63 84.47 233.67 80.75C229.5 75.51 229.39 68.11 233.39 62.76L234.28 61.57L249.09 57.26L250.48 57.79C252.94 58.73 255.11 60.33 256.75 62.39C259.42 65.75 262.52 68.95 265.97 71.9L269.03 74.52L261.22 85.59L251.42 90.89L251.13 91C251.13 91 249.71 91.53 248.09 92.17L245.49 93.19L243.45 91.29L243.46 91.32Z" fill="white"/>
<path d="M239.63 81.55C235.89 81.55 232.32 80.15 229.59 77.6C226.71 74.92 225.04 71.27 224.9 67.34C224.76 63.4 226.16 59.65 228.84 56.77C242.39 42.22 260.66 31.74 280.3 27.27C281.38 27.02 282.48 26.9 283.58 26.9C290.5 26.9 296.41 31.62 297.95 38.37C298.83 42.21 298.15 46.16 296.06 49.49C293.96 52.82 290.69 55.14 286.85 56.02C272.92 59.19 259.98 66.6 250.42 76.87C247.64 79.85 243.71 81.57 239.63 81.57V81.55Z" fill="white"/>
<path d="M218.94 132.35C210.77 132.27 204.22 125.6 204.3 117.47C204.51 95.1 213.23 73.55 228.85 56.77C231.63 53.78 235.56 52.07 239.64 52.07C243.38 52.07 246.95 53.47 249.68 56.02C252.56 58.7 254.23 62.35 254.37 66.28C254.51 70.22 253.11 73.97 250.43 76.85C239.68 88.39 233.93 102.53 233.78 117.74C233.7 125.79 227.09 132.34 219.04 132.34H218.94V132.35Z" fill="white"/>
<path d="M314.9 119.9C306.85 119.9 298.72 118.89 290.73 116.91C282.84 114.95 278.02 106.94 279.97 99.05C281.61 92.46 287.49 87.86 294.28 87.86C295.47 87.86 296.67 88.01 297.83 88.29C303.51 89.7 309.25 90.41 314.89 90.41C318.66 90.41 322.36 90.09 325.88 89.45C327.43 89.17 340.98 86.42 340.57 76.51C340.41 72.58 341.79 68.81 344.45 65.92C347.12 63.02 350.75 61.34 354.69 61.17C354.9 61.17 355.11 61.16 355.33 61.16C363.25 61.16 369.7 67.37 370.03 75.29C370.92 96.73 355.29 114.08 331.14 118.46C325.9 119.41 320.43 119.89 314.9 119.89V119.9Z" fill="white"/>
<path d="M355.29 90.65C347.36 90.65 340.9 84.44 340.57 76.52C340.18 66.98 330.97 60.46 323.2 57.78C316.49 55.46 309.4 54.29 302.13 54.29C297.04 54.29 291.9 54.87 286.85 56.02C285.77 56.27 284.67 56.39 283.57 56.39C276.65 56.39 270.74 51.67 269.2 44.92C267.4 36.99 272.38 29.08 280.3 27.27C287.5 25.63 294.84 24.8 302.13 24.8C312.67 24.8 323 26.52 332.82 29.91C354.59 37.43 369.2 55.25 370.03 75.31C370.37 83.43 364.03 90.31 355.91 90.65C355.7 90.65 355.5 90.66 355.29 90.66V90.65Z" fill="white"/>
<path d="M245.22 81.89C242.18 81.89 239.18 80.56 237.14 78C227.09 65.36 221.03 50.66 219.61 35.51C219.08 29.84 223.25 24.81 228.92 24.29C234.59 23.75 239.62 27.93 240.14 33.6C241.18 44.75 245.72 55.67 253.28 65.17C256.82 69.63 256.08 76.11 251.63 79.66C249.73 81.17 247.47 81.9 245.22 81.9V81.89Z" fill="#862BFF"/>
<path d="M304.29 105.09C303.13 109.78 298.92 112.92 294.29 112.92C293.46 112.92 292.63 112.82 291.79 112.62C274.89 108.43 258.96 99.72 246.48 88.09C243.09 84.94 239.97 81.56 237.15 78.01C234.18 74.27 234.21 69.09 236.95 65.43C237.46 64.73 238.08 64.09 238.8 63.52C241.76 61.17 245.61 60.7 248.9 61.95C250.57 62.59 252.1 63.67 253.28 65.17C256.17 68.81 259.46 72.19 263.09 75.3C272.6 83.42 284.34 89.52 296.76 92.61C302.28 93.98 305.65 99.57 304.28 105.1L304.29 105.09Z" fill="#B54CFE"/>
<path d="M314.9 115.47C307.26 115.47 299.46 114.51 291.8 112.61C286.27 111.24 282.9 105.65 284.28 100.12C285.65 94.59 291.24 91.23 296.77 92.6C306.89 95.11 317.23 95.53 326.68 93.82C335.4 92.24 345.44 86.71 345.01 76.33C344.77 70.64 349.19 65.84 354.89 65.6C360.57 65.35 365.38 69.79 365.62 75.48C366.41 94.62 352.25 110.14 330.37 114.11C325.36 115.02 320.18 115.47 314.92 115.47H314.9Z" fill="url(#paint9_linear_2760_15052)"/>
<path d="M355.29 86.21C349.79 86.21 345.22 81.87 345 76.33C344.51 64.56 333.73 56.72 324.65 53.58C312.41 49.35 299 48.7 285.87 51.69C280.32 52.95 274.79 49.48 273.53 43.93C272.27 38.38 275.74 32.85 281.29 31.59C298.17 27.74 315.49 28.61 331.38 34.09C351.42 41.01 364.85 57.25 365.61 75.48C365.84 81.17 361.42 85.97 355.73 86.21C355.59 86.21 355.44 86.21 355.3 86.21H355.29Z" fill="#FF8E00"/>
<path d="M263.09 75.29L258.21 82.22L249.6 86.88C249.6 86.88 248.15 87.42 246.49 88.07C243.1 84.92 239.98 81.54 237.16 77.99C234.19 74.25 234.22 69.07 236.96 65.41L248.91 61.93C250.58 62.57 252.11 63.65 253.29 65.15C256.18 68.79 259.47 72.17 263.1 75.28L263.09 75.29Z" fill="url(#paint10_linear_2760_15052)"/>
<path d="M239.63 77.12C237.11 77.12 234.59 76.21 232.61 74.36C228.44 70.48 228.21 63.96 232.09 59.79C245.04 45.88 262.51 35.87 281.29 31.59C286.83 30.32 292.37 33.8 293.63 39.35C294.9 44.9 291.42 50.43 285.87 51.69C271.08 55.06 257.34 62.93 247.18 73.84C245.15 76.02 242.39 77.12 239.63 77.12Z" fill="#FFD202"/>
<path d="M219.04 127.92H218.94C213.25 127.87 208.67 123.21 208.73 117.51C208.93 96.25 217.23 75.75 232.09 59.79C235.97 55.62 242.49 55.39 246.66 59.27C250.83 63.15 251.06 69.67 247.18 73.84C235.67 86.21 229.5 101.38 229.35 117.71C229.3 123.37 224.69 127.92 219.04 127.92Z" fill="url(#paint11_linear_2760_15052)"/>
<g opacity="0.51">
<path d="M75.98 46.78C76.35 46.78 76.67 46.65 76.94 46.38C77.21 46.11 77.34 45.8 77.34 45.42C77.34 45.05 77.21 44.73 76.94 44.46C76.67 44.19 76.36 44.06 75.98 44.06C75.6 44.06 75.29 44.19 75.02 44.46C74.75 44.73 74.62 45.04 74.62 45.42C74.62 45.79 74.75 46.11 75.02 46.38C75.29 46.65 75.6 46.78 75.98 46.78Z" fill="#0C76BF"/>
<path d="M79.16 46.79C79.53 46.79 79.85 46.66 80.12 46.39C80.39 46.12 80.52 45.81 80.52 45.43C80.52 45.06 80.39 44.74 80.12 44.47C79.85 44.2 79.53 44.07 79.16 44.07C78.79 44.07 78.47 44.2 78.2 44.47C77.93 44.74 77.8 45.05 77.8 45.43C77.8 45.8 77.93 46.12 78.2 46.39C78.47 46.66 78.78 46.79 79.16 46.79Z" fill="#0C76BF"/>
<path d="M91.78 47.62C92.18 47.62 92.51 47.48 92.77 47.21C93.05 47.49 93.38 47.63 93.76 47.63C94.16 47.63 94.5 47.49 94.78 47.21C95.06 46.93 95.19 46.58 95.2 46.17V45.07H94.34V46.17C94.34 46.35 94.29 46.49 94.19 46.6C94.09 46.71 93.95 46.76 93.77 46.76C93.6 46.76 93.47 46.71 93.37 46.6C93.27 46.49 93.23 46.35 93.23 46.17V45.05H92.37V46.17C92.37 46.34 92.31 46.48 92.21 46.59C92.1 46.7 91.97 46.76 91.8 46.76C91.63 46.76 91.49 46.71 91.39 46.6C91.29 46.49 91.24 46.35 91.24 46.17V45.05H90.36V46.17C90.36 46.6 90.49 46.95 90.76 47.22C91.03 47.5 91.37 47.64 91.79 47.64L91.78 47.62Z" fill="#0C76BF"/>
<path d="M94.35 58.63C93.98 58.63 93.66 58.76 93.39 59.03C93.12 59.3 92.99 59.61 92.99 59.99C92.99 60.36 93.12 60.68 93.39 60.95C93.66 61.22 93.97 61.35 94.35 61.35C94.72 61.35 95.04 61.22 95.31 60.95C95.58 60.68 95.71 60.37 95.71 59.99C95.71 59.62 95.58 59.3 95.31 59.03C95.04 58.76 94.72 58.63 94.35 58.63Z" fill="#0C76BF"/>
<path d="M91.17 58.62C90.8 58.62 90.48 58.75 90.21 59.02C89.94 59.29 89.81 59.6 89.81 59.98C89.81 60.35 89.94 60.67 90.21 60.94C90.48 61.21 90.79 61.34 91.17 61.34C91.54 61.34 91.86 61.21 92.13 60.94C92.4 60.67 92.53 60.36 92.53 59.98C92.53 59.61 92.4 59.29 92.13 59.02C91.86 58.75 91.55 58.62 91.17 58.62Z" fill="#0C76BF"/>
<path d="M123.35 58.66C122.98 58.66 122.66 58.79 122.39 59.06C122.12 59.33 121.99 59.64 121.99 60.02C121.99 60.39 122.12 60.71 122.39 60.98C122.66 61.25 122.97 61.38 123.35 61.38C123.72 61.38 124.04 61.25 124.31 60.98C124.58 60.71 124.71 60.4 124.71 60.02C124.71 59.65 124.58 59.33 124.31 59.06C124.04 58.79 123.72 58.66 123.35 58.66Z" fill="#0C76BF"/>
<path d="M120.18 58.66C119.81 58.66 119.49 58.79 119.22 59.06C118.95 59.33 118.82 59.64 118.82 60.02C118.82 60.39 118.95 60.71 119.22 60.98C119.49 61.25 119.8 61.38 120.18 61.38C120.56 61.38 120.87 61.25 121.14 60.98C121.41 60.71 121.54 60.4 121.54 60.02C121.54 59.65 121.41 59.33 121.14 59.06C120.87 58.79 120.56 58.66 120.18 58.66Z" fill="#0C76BF"/>
<path d="M161.35 48.19C161.72 48.19 162.04 48.06 162.31 47.79C162.58 47.52 162.71 47.21 162.71 46.83C162.71 46.45 162.58 46.14 162.31 45.87C162.04 45.6 161.73 45.47 161.35 45.47C160.97 45.47 160.66 45.6 160.39 45.87C160.12 46.14 159.99 46.45 159.99 46.83C159.99 47.21 160.12 47.52 160.39 47.79C160.66 48.06 160.97 48.19 161.35 48.19Z" fill="#0C76BF"/>
<path d="M158.18 48.19C158.55 48.19 158.87 48.06 159.14 47.79C159.41 47.52 159.54 47.21 159.54 46.83C159.54 46.45 159.41 46.14 159.14 45.87C158.87 45.6 158.56 45.47 158.18 45.47C157.8 45.47 157.49 45.6 157.22 45.87C156.95 46.14 156.82 46.45 156.82 46.83C156.82 47.21 156.95 47.52 157.22 47.79C157.49 48.06 157.8 48.19 158.18 48.19Z" fill="#0C76BF"/>
<path d="M171.8 54.93H169.81H166.62H163.43C162.53 54.93 161.88 54.73 161.48 54.33C161.14 53.97 160.97 53.48 160.97 52.88V49.63H158.56V52.88C158.56 53.56 158.37 54.07 158 54.41C157.63 54.75 157.15 54.92 156.56 54.92H153.37H150.71L152.42 53.21C152.42 52.34 152.21 51.54 151.79 50.82C151.37 50.1 150.8 49.54 150.07 49.13C149.34 48.72 148.53 48.51 147.64 48.51C146.76 48.51 145.95 48.71 145.22 49.12C144.49 49.53 143.92 50.09 143.49 50.81C143.07 51.53 142.86 52.32 142.86 53.19L144.55 54.9H141.89H138.7H135.51C134.61 54.9 133.96 54.7 133.56 54.3C133.22 53.94 133.05 53.45 133.05 52.85V45.54H130.65V52.85C130.65 53.53 130.46 54.04 130.08 54.38C129.71 54.72 129.23 54.89 128.64 54.89H125.45C124.55 54.89 123.9 54.69 123.5 54.29C123.16 53.93 122.99 53.44 122.99 52.84V49.59H120.58V52.84C120.58 53.52 120.39 54.03 120.02 54.37C119.65 54.71 119.17 54.88 118.58 54.88H115.39C114.49 54.88 113.84 54.68 113.44 54.29C113.14 53.97 112.98 53.56 112.95 53.05C112.95 52.21 112.76 51.44 112.39 50.74C112.01 50.04 111.5 49.49 110.84 49.09C110.18 48.69 109.45 48.48 108.63 48.48C107.62 48.48 106.76 48.81 106.05 49.48C105.34 50.15 104.82 51.09 104.49 52.3C104.45 52.44 104.37 52.74 104.27 53.19C104.16 53.64 104.07 53.97 103.99 54.18C103.91 54.39 103.78 54.56 103.6 54.68C103.42 54.8 103.16 54.86 102.82 54.86H99.63H96.44C95.54 54.86 94.89 54.66 94.49 54.27C94.15 53.91 93.98 53.42 93.98 52.82V49.57H91.57V52.82C91.57 53.5 91.38 54.01 91.01 54.35C90.64 54.69 90.16 54.86 89.57 54.86H86.38H83.19C82.61 54.86 82.13 54.69 81.76 54.35C81.39 54.01 81.21 53.5 81.21 52.82V47.75H78.81V48.48C78.5 48.44 78.16 48.42 77.77 48.42C76.77 48.42 75.87 48.61 75.07 48.98C74.27 49.36 73.65 49.9 73.19 50.6C72.74 51.3 72.51 52.12 72.51 53.04C72.51 53.78 72.67 54.45 72.99 55.04C73.31 55.63 73.74 56.09 74.28 56.41C74.82 56.73 75.39 56.9 76.01 56.9C77.54 56.9 78.59 56.23 79.17 54.88C79.49 55.64 79.99 56.22 80.68 56.62C81.37 57.02 82.2 57.23 83.18 57.23H86.37H89.56C90.3 57.23 90.97 57.11 91.55 56.87C92.13 56.63 92.61 56.28 93 55.83C93.59 56.77 94.74 57.24 96.43 57.24H99.62H102.81C103.39 57.24 103.93 57.14 104.41 56.93C104.89 56.72 105.3 56.42 105.62 56.03C106.1 56.43 106.62 56.74 107.17 56.94C107.73 57.14 108.29 57.24 108.87 57.25C109.6 57.25 110.28 57.09 110.9 56.76C111.32 56.54 111.66 56.21 111.97 55.85C112.07 56.01 112.18 56.17 112.31 56.3C112.93 56.94 113.95 57.26 115.38 57.26H118.57C119.31 57.26 119.98 57.14 120.56 56.9C121.14 56.66 121.62 56.31 122.01 55.86C122.6 56.8 123.75 57.27 125.44 57.27H128.63C129.37 57.27 130.04 57.15 130.62 56.91C131.2 56.67 131.68 56.32 132.07 55.87C132.66 56.81 133.81 57.28 135.5 57.28H138.69H141.88H146C146.66 57.28 147.2 56.9 147.63 56.14C148.07 56.91 148.61 57.29 149.26 57.29H153.38H156.57C157.31 57.29 157.98 57.17 158.56 56.93C159.14 56.69 159.62 56.34 160.01 55.89C160.6 56.83 161.75 57.3 163.44 57.3H166.63H169.82H174.22L174.23 45.59H171.82V54.94L171.8 54.93ZM78.82 51.81C78.82 52.65 78.63 53.32 78.24 53.8C77.85 54.29 77.33 54.53 76.68 54.53C76.16 54.53 75.73 54.39 75.4 54.12C75.07 53.85 74.91 53.46 74.91 52.96C74.91 52.25 75.19 51.68 75.75 51.26C76.31 50.84 77.02 50.63 77.88 50.63C78.16 50.63 78.47 50.66 78.82 50.71V51.8V51.81ZM109.97 54.5C109.59 54.85 109.1 55.02 108.52 55.02C108.18 55.02 107.83 54.96 107.47 54.84C107.11 54.72 106.77 54.53 106.47 54.29C106.51 54.16 106.54 54.05 106.56 53.95C106.58 53.85 106.59 53.76 106.62 53.69C106.67 53.35 106.75 53.03 106.86 52.72C107.07 52.08 107.32 51.62 107.59 51.32C107.86 51.03 108.22 50.88 108.65 50.88C109.22 50.88 109.69 51.09 110.04 51.5C110.39 51.91 110.57 52.42 110.56 53.04C110.56 53.68 110.37 54.17 109.98 54.52L109.97 54.5ZM147.63 54.94L145.26 52.5C145.29 52.27 145.41 52.03 145.63 51.78C145.84 51.54 146.13 51.33 146.48 51.17C146.84 51.01 147.22 50.92 147.64 50.92C148.06 50.92 148.44 51 148.8 51.17C149.16 51.34 149.44 51.54 149.65 51.79C149.86 52.04 149.98 52.27 150.02 52.51L147.64 54.95L147.63 54.94Z" fill="#0C76BF"/>
<path d="M175.902 45.5827L175.889 57.2927L178.299 57.2952L178.312 45.5852L175.902 45.5827Z" fill="#0C76BF"/>
</g>
<path d="M74.97 46.05C75.34 46.05 75.66 45.92 75.93 45.65C76.2 45.38 76.33 45.07 76.33 44.69C76.33 44.32 76.2 44 75.93 43.73C75.66 43.46 75.35 43.33 74.97 43.33C74.59 43.33 74.28 43.46 74.01 43.73C73.74 44 73.61 44.31 73.61 44.69C73.61 45.06 73.74 45.38 74.01 45.65C74.28 45.92 74.59 46.05 74.97 46.05Z" fill="white"/>
<path d="M78.14 46.05C78.51 46.05 78.83 45.92 79.1 45.65C79.37 45.38 79.5 45.07 79.5 44.69C79.5 44.32 79.37 44 79.1 43.73C78.83 43.46 78.51 43.33 78.14 43.33C77.77 43.33 77.45 43.46 77.18 43.73C76.91 44 76.78 44.31 76.78 44.69C76.78 45.06 76.91 45.38 77.18 45.65C77.45 45.92 77.76 46.05 78.14 46.05Z" fill="white"/>
<path d="M90.76 46.88C91.16 46.88 91.49 46.74 91.75 46.47C92.03 46.75 92.36 46.89 92.74 46.89C93.14 46.89 93.48 46.75 93.76 46.47C94.04 46.19 94.17 45.84 94.18 45.43V44.33H93.32V45.43C93.32 45.61 93.27 45.75 93.17 45.86C93.07 45.97 92.93 46.02 92.75 46.02C92.58 46.02 92.45 45.97 92.35 45.86C92.25 45.75 92.21 45.61 92.21 45.43V44.31H91.35V45.43C91.35 45.6 91.29 45.74 91.19 45.85C91.08 45.96 90.95 46.02 90.78 46.02C90.61 46.02 90.47 45.97 90.37 45.86C90.27 45.75 90.22 45.61 90.22 45.43V44.31H89.34V45.43C89.34 45.86 89.47 46.21 89.74 46.48C90.01 46.76 90.35 46.9 90.77 46.9L90.76 46.88Z" fill="white"/>
<path d="M93.33 57.89C92.96 57.89 92.64 58.02 92.37 58.29C92.1 58.56 91.97 58.87 91.97 59.25C91.97 59.62 92.1 59.94 92.37 60.21C92.64 60.48 92.95 60.61 93.33 60.61C93.7 60.61 94.02 60.48 94.29 60.21C94.56 59.94 94.69 59.63 94.69 59.25C94.69 58.88 94.56 58.56 94.29 58.29C94.02 58.02 93.7 57.89 93.33 57.89Z" fill="white"/>
<path d="M90.16 57.89C89.79 57.89 89.47 58.02 89.2 58.29C88.93 58.56 88.8 58.87 88.8 59.25C88.8 59.62 88.93 59.94 89.2 60.21C89.47 60.48 89.78 60.61 90.16 60.61C90.53 60.61 90.85 60.48 91.12 60.21C91.39 59.94 91.52 59.63 91.52 59.25C91.52 58.88 91.39 58.56 91.12 58.29C90.85 58.02 90.54 57.89 90.16 57.89Z" fill="white"/>
<path d="M122.34 57.93C121.97 57.93 121.65 58.06 121.38 58.33C121.11 58.6 120.98 58.91 120.98 59.29C120.98 59.66 121.11 59.98 121.38 60.25C121.65 60.52 121.96 60.65 122.34 60.65C122.71 60.65 123.03 60.52 123.3 60.25C123.57 59.98 123.7 59.67 123.7 59.29C123.7 58.92 123.57 58.6 123.3 58.33C123.03 58.06 122.71 57.93 122.34 57.93Z" fill="white"/>
<path d="M119.16 57.92C118.79 57.92 118.47 58.05 118.2 58.32C117.93 58.59 117.8 58.9 117.8 59.28C117.8 59.65 117.93 59.97 118.2 60.24C118.47 60.51 118.78 60.64 119.16 60.64C119.54 60.64 119.85 60.51 120.12 60.24C120.39 59.97 120.52 59.66 120.52 59.28C120.52 58.91 120.39 58.59 120.12 58.32C119.85 58.05 119.54 57.92 119.16 57.92Z" fill="white"/>
<path d="M160.34 47.46C160.71 47.46 161.03 47.33 161.3 47.06C161.57 46.79 161.7 46.48 161.7 46.1C161.7 45.72 161.57 45.41 161.3 45.14C161.03 44.87 160.72 44.74 160.34 44.74C159.96 44.74 159.65 44.87 159.38 45.14C159.11 45.41 158.98 45.72 158.98 46.1C158.98 46.48 159.11 46.79 159.38 47.06C159.65 47.33 159.96 47.46 160.34 47.46Z" fill="white"/>
<path d="M157.16 47.45C157.53 47.45 157.85 47.32 158.12 47.05C158.39 46.78 158.52 46.47 158.52 46.09C158.52 45.71 158.39 45.4 158.12 45.13C157.85 44.86 157.54 44.73 157.16 44.73C156.78 44.73 156.47 44.86 156.2 45.13C155.93 45.4 155.8 45.71 155.8 46.09C155.8 46.47 155.93 46.78 156.2 47.05C156.47 47.32 156.78 47.45 157.16 47.45Z" fill="white"/>
<path d="M170.78 54.2H168.79H165.6H162.41C161.51 54.2 160.86 54 160.46 53.6C160.12 53.24 159.95 52.75 159.95 52.15V48.9H157.54V52.15C157.54 52.83 157.35 53.34 156.98 53.68C156.61 54.02 156.13 54.19 155.54 54.19H152.35H149.69L151.4 52.48C151.4 51.61 151.19 50.81 150.77 50.09C150.35 49.37 149.78 48.81 149.05 48.4C148.32 47.99 147.51 47.78 146.62 47.78C145.74 47.78 144.93 47.98 144.2 48.39C143.47 48.8 142.9 49.36 142.47 50.08C142.05 50.8 141.84 51.59 141.84 52.46L143.53 54.17H140.87H137.68H134.49C133.59 54.17 132.94 53.97 132.54 53.57C132.2 53.21 132.03 52.72 132.03 52.12V44.81H129.63V52.12C129.63 52.8 129.44 53.31 129.06 53.65C128.69 53.99 128.21 54.16 127.62 54.16H124.43C123.53 54.16 122.88 53.96 122.48 53.56C122.14 53.2 121.97 52.71 121.97 52.11V48.86H119.56V52.11C119.56 52.79 119.37 53.3 119 53.64C118.63 53.98 118.15 54.15 117.56 54.15H114.37C113.47 54.15 112.82 53.95 112.42 53.56C112.12 53.24 111.96 52.83 111.93 52.32C111.93 51.48 111.74 50.71 111.37 50.01C110.99 49.31 110.48 48.76 109.82 48.36C109.16 47.96 108.43 47.75 107.61 47.75C106.6 47.75 105.74 48.08 105.03 48.75C104.32 49.42 103.8 50.36 103.47 51.57C103.43 51.71 103.35 52.01 103.25 52.46C103.14 52.91 103.05 53.24 102.97 53.45C102.89 53.66 102.76 53.83 102.58 53.95C102.4 54.07 102.14 54.13 101.8 54.13H98.61H95.42C94.52 54.13 93.87 53.93 93.47 53.54C93.13 53.18 92.96 52.69 92.96 52.09V48.84H90.55V52.09C90.55 52.77 90.36 53.28 89.99 53.62C89.62 53.96 89.14 54.13 88.55 54.13H85.36H82.17C81.59 54.13 81.11 53.96 80.74 53.62C80.37 53.28 80.19 52.77 80.19 52.09V47.02H77.79V47.75C77.48 47.71 77.14 47.69 76.75 47.69C75.75 47.69 74.85 47.88 74.05 48.25C73.25 48.63 72.63 49.17 72.17 49.87C71.72 50.57 71.49 51.39 71.49 52.31C71.49 53.05 71.65 53.72 71.97 54.31C72.29 54.9 72.72 55.36 73.26 55.68C73.8 56 74.37 56.17 74.99 56.17C76.52 56.17 77.57 55.5 78.15 54.15C78.47 54.91 78.97 55.49 79.66 55.89C80.35 56.29 81.18 56.5 82.16 56.5H85.35H88.54C89.28 56.5 89.95 56.38 90.53 56.14C91.11 55.9 91.59 55.55 91.98 55.1C92.57 56.04 93.72 56.51 95.41 56.51H98.6H101.79C102.37 56.51 102.91 56.41 103.39 56.2C103.87 55.99 104.28 55.69 104.6 55.3C105.08 55.7 105.6 56.01 106.15 56.21C106.71 56.41 107.27 56.51 107.85 56.52C108.58 56.52 109.26 56.36 109.88 56.03C110.3 55.81 110.64 55.48 110.95 55.12C111.05 55.28 111.16 55.44 111.29 55.57C111.91 56.21 112.93 56.53 114.36 56.53H117.55C118.29 56.53 118.96 56.41 119.54 56.17C120.12 55.93 120.6 55.58 120.99 55.13C121.58 56.07 122.73 56.54 124.42 56.54H127.61C128.35 56.54 129.02 56.42 129.6 56.18C130.18 55.94 130.66 55.59 131.05 55.14C131.64 56.08 132.79 56.55 134.48 56.55H137.67H140.86H144.98C145.64 56.55 146.18 56.17 146.61 55.41C147.05 56.18 147.59 56.56 148.24 56.56H152.36H155.55C156.29 56.56 156.96 56.44 157.54 56.2C158.12 55.96 158.6 55.61 158.99 55.16C159.58 56.1 160.73 56.57 162.42 56.57H165.61H168.8H173.2L173.21 44.86H170.8V54.21L170.78 54.2ZM77.8 51.08C77.8 51.92 77.61 52.59 77.22 53.07C76.83 53.56 76.31 53.8 75.66 53.8C75.14 53.8 74.71 53.66 74.38 53.39C74.05 53.12 73.89 52.73 73.89 52.23C73.89 51.52 74.17 50.95 74.73 50.53C75.29 50.11 76 49.9 76.86 49.9C77.14 49.9 77.45 49.93 77.8 49.98V51.07V51.08ZM108.96 53.77C108.58 54.12 108.09 54.29 107.51 54.29C107.17 54.29 106.82 54.23 106.46 54.11C106.1 53.99 105.76 53.8 105.46 53.56C105.5 53.43 105.53 53.32 105.55 53.22C105.57 53.12 105.58 53.03 105.61 52.96C105.66 52.62 105.74 52.3 105.85 51.99C106.06 51.35 106.31 50.89 106.58 50.59C106.85 50.3 107.21 50.15 107.64 50.15C108.21 50.15 108.68 50.36 109.03 50.77C109.38 51.18 109.56 51.69 109.55 52.31C109.55 52.95 109.36 53.44 108.97 53.79L108.96 53.77ZM146.61 54.2L144.24 51.76C144.27 51.53 144.39 51.29 144.61 51.04C144.82 50.8 145.11 50.59 145.46 50.43C145.82 50.27 146.2 50.18 146.62 50.18C147.04 50.18 147.42 50.26 147.78 50.43C148.14 50.6 148.42 50.8 148.63 51.05C148.84 51.3 148.96 51.53 149 51.77L146.62 54.21L146.61 54.2Z" fill="white"/>
<path d="M174.88 44.8519L174.868 56.5619L177.278 56.5645L177.29 44.8545L174.88 44.8519Z" fill="white"/>
<path d="M324.63 9.84H324.03V7.02H322.96V6.47H325.7V7.02H324.63V9.84Z" fill="url(#paint12_linear_2760_15052)"/>
<path d="M327.99 9.01H327.97L326.91 7.43V9.84H326.32V6.47H326.95L327.98 8.06L329.01 6.47H329.64V9.84H329.05V7.42L327.99 9.01Z" fill="url(#paint13_linear_2760_15052)"/>
<defs>
<linearGradient id="paint0_linear_2760_15052" x1="-7.09" y1="107.27" x2="55.66" y2="86.8" gradientUnits="userSpaceOnUse">
<stop stop-color="#00AEFD"/>
<stop offset="1" stop-color="#007FFD"/>
</linearGradient>
<linearGradient id="paint1_linear_2760_15052" x1="25.53" y1="98.53" x2="292.14" y2="11.57" gradientUnits="userSpaceOnUse">
<stop stop-color="#00AEFD"/>
<stop offset="1" stop-color="#007FFD"/>
</linearGradient>
<linearGradient id="paint2_linear_2760_15052" x1="72.16" y1="86.04" x2="140.16" y2="35.3" gradientUnits="userSpaceOnUse">
<stop stop-color="#10A5D9"/>
<stop offset="1" stop-color="#007FFD"/>
</linearGradient>
<linearGradient id="paint3_linear_2760_15052" x1="182.99" y1="31.55" x2="51.19" y2="72.1" gradientUnits="userSpaceOnUse">
<stop stop-color="#58A5DB"/>
<stop offset="1" stop-color="#007FFD"/>
</linearGradient>
<linearGradient id="paint4_linear_2760_15052" x1="59.66" y1="41.28" x2="62.17" y2="32.87" gradientUnits="userSpaceOnUse">
<stop stop-color="#FFCD00"/>
<stop offset="1" stop-color="#F7AB34"/>
</linearGradient>
<linearGradient id="paint5_linear_2760_15052" x1="72.98" y1="11.3" x2="42.57" y2="53.87" gradientUnits="userSpaceOnUse">
<stop stop-color="#FFCD00"/>
<stop offset="1" stop-color="#F7AB34"/>
</linearGradient>
<linearGradient id="paint6_linear_2760_15052" x1="124.16" y1="176.16" x2="399.39" y2="4.01002" gradientUnits="userSpaceOnUse">
<stop stop-color="#00AEFD"/>
<stop offset="1" stop-color="#007FFD"/>
</linearGradient>
<linearGradient id="paint7_linear_2760_15052" x1="241.19" y1="156.63" x2="308.81" y2="59.52" gradientUnits="userSpaceOnUse">
<stop stop-color="#FC742E"/>
<stop offset="1" stop-color="#740435"/>
</linearGradient>
<linearGradient id="paint8_linear_2760_15052" x1="234.32" y1="158.26" x2="268.79" y2="94.91" gradientUnits="userSpaceOnUse">
<stop stop-color="#FC742E"/>
<stop offset="1" stop-color="#740435"/>
</linearGradient>
<linearGradient id="paint9_linear_2760_15052" x1="283.96" y1="90.53" x2="365.63" y2="90.53" gradientUnits="userSpaceOnUse">
<stop stop-color="#FC742E"/>
<stop offset="1" stop-color="#FC3278"/>
</linearGradient>
<linearGradient id="paint10_linear_2760_15052" x1="219.1" y1="41.83" x2="253.41" y2="80.45" gradientUnits="userSpaceOnUse">
<stop offset="0.34" stop-color="#662480"/>
<stop offset="0.7" stop-color="#4C4794"/>
<stop offset="0.75" stop-color="#52479A"/>
<stop offset="0.82" stop-color="#6448AD"/>
<stop offset="0.9" stop-color="#8249CB"/>
<stop offset="0.98" stop-color="#AC4BF5"/>
<stop offset="1" stop-color="#B54CFE"/>
</linearGradient>
<linearGradient id="paint11_linear_2760_15052" x1="262.03" y1="46.05" x2="209.63" y2="119.15" gradientUnits="userSpaceOnUse">
<stop stop-color="#00AEFD"/>
<stop offset="1" stop-color="#007FFD"/>
</linearGradient>
<linearGradient id="paint12_linear_2760_15052" x1="311.24" y1="21.13" x2="344.78" y2="-13.5303" gradientUnits="userSpaceOnUse">
<stop stop-color="#00AEFD"/>
<stop offset="1" stop-color="#007FFD"/>
</linearGradient>
<linearGradient id="paint13_linear_2760_15052" x1="313.4" y1="23.22" x2="346.94" y2="-11.4401" gradientUnits="userSpaceOnUse">
<stop stop-color="#00AEFD"/>
<stop offset="1" stop-color="#007FFD"/>
</linearGradient>
</defs>
</svg>
